<svg xmlns:xlink="http://www.w3.org/1999/xlink" xmlns="http://www.w3.org/2000/svg" x="0px" y="0px" viewBox="0 0 27 27" xml:space="preserve" height="25" width="25"><g><path fill="#93A5B1" d="M21,5.5H6c-1.2,0-2.1,1-2.1,2.1v12.2C3.9,21,4.8,22,6,22h15c1.2,0,2.2-1,2.2-2.2V7.6C23.2,6.4,22.2,5.5,21,5.5z M5.4,18.6 l4.7-5.2c0,0,0,0,0.1,0c0,0,0,0,0,0c0,0,0.1,0,0.1,0l6.6,6.9H6c-0.3,0-0.6-0.2-0.6-0.5V18.6z M21.5,17.1l-4-4.2 c-0.2-0.2-0.4-0.3-0.6-0.3c0,0,0,0,0,0c-0.2,0-0.5,0.1-0.6,0.3l-2.1,2.3l-3.4-3.6c-0.2-0.2-0.4-0.3-0.7-0.3c-0.3,0-0.5,0.1-0.7,0.3 l-4,4.5V7.6C5.4,7.3,5.7,7,6,7h15c0.3,0,0.5,0.2,0.5,0.6V17.1z M16.7,14.9c0-0.1,0.1-0.1,0.2-0.1c0.1,0,0.1,0,0.2,0.1l4.4,4.6v0.3 c0,0.3-0.2,0.5-0.5,0.5h-1.8l-3.8-4L16.7,14.9z"></path><path fill="#93A5B1" d="M17.6,8.1c-0.7,0-1.5,0.6-1.5,1.6c0,0.7,0.6,1.5,1.5,1.5c0.7,0,1.6-0.6,1.5-1.6C19,8.8,18.4,8.1,17.6,8.1z"></path></g></svg>